<?xml version="1.0" standalone="no"?>
<!DOCTYPE svg PUBLIC "-//W3C//DTD SVG 20010904//EN"
 "http://www.w3.org/TR/2001/REC-SVG-20010904/DTD/svg10.dtd">
<svg version="1.0" xmlns="http://www.w3.org/2000/svg"
 width="500.000000pt" height="500.000000pt" viewBox="0 0 500.000000 500.000000"
 preserveAspectRatio="xMidYMid meet">
<metadata>
Created by potrace 1.14, written by Peter Selinger 2001-2017
</metadata>
<g transform="translate(0.000000,500.000000) scale(0.100000,-0.100000)"
fill="#000000" stroke="none">
<path d="M1675 4974 c-231 -51 -430 -161 -562 -310 -31 -35 -76 -76 -100 -89
-116 -69 -259 -330 -315 -580 -29 -132 -37 -437 -13 -575 9 -56 14 -108 11
-115 -2 -7 -18 -16 -33 -19 -122 -27 -166 -157 -109 -323 13 -38 27 -90 31
-114 36 -227 140 -402 262 -443 59 -20 53 -7 123 -236 27 -91 68 -201 90 -245
55 -110 180 -263 352 -432 133 -129 153 -145 239 -186 52 -25 118 -50 147 -56
123 -25 395 0 457 43 46 31 -48 -61 -120 -118 -116 -92 -172 -172 -209 -295
-20 -67 -21 -161 -3 -186 13 -17 15 -16 25 13 13 39 25 42 16 5 l-5 -28 20 23
21 24 -2 -109 c-3 -170 32 -277 120 -373 57 -64 129 -103 216 -119 71 -13 217
-15 198 -2 -34 21 44 16 148 -10 62 -15 160 -33 218 -38 117 -12 662 -15 930
-4 164 6 171 7 156 24 -15 16 -14 17 6 12 16 -4 23 0 26 15 6 19 8 19 67 5 71
-17 268 -13 329 6 94 30 278 203 278 263 0 18 -5 19 -47 14 -28 -3 -63 0 -83
7 -43 15 -80 68 -80 114 0 44 40 164 85 253 19 38 49 112 66 165 32 100 78
318 79 370 0 23 3 27 10 15 8 -12 10 -10 10 10 0 14 3 49 6 77 6 44 4 53 -9
53 -8 0 -17 -6 -20 -12 -2 -7 -7 8 -11 35 -8 53 2 140 15 132 4 -3 6 -12 2
-20 -3 -9 -2 -32 3 -53 l8 -37 7 50 c10 72 11 177 0 171 -5 -3 -11 45 -14 107
-15 311 -53 433 -182 589 -95 115 -283 237 -446 287 -35 11 -110 34 -167 51
-268 84 -341 196 -496 770 -68 248 -136 457 -185 565 -209 464 -538 746 -981
842 -149 33 -472 42 -585 17z m535 -83 c328 -66 595 -237 791 -506 135 -186
209 -406 255 -759 9 -67 18 -123 20 -126 3 -2 4 60 2 138 -2 78 -1 142 2 142
3 0 27 -82 54 -183 75 -275 143 -482 193 -582 l45 -90 -32 30 c-68 63 -151
199 -191 310 -27 78 -23 17 6 -72 37 -114 97 -216 176 -295 37 -37 62 -68 54
-68 -19 0 -130 42 -183 69 -56 29 -53 14 6 -31 98 -74 212 -117 377 -143 273
-43 506 -146 649 -290 49 -48 116 -135 116 -149 0 -3 -24 17 -53 45 -59 57
-112 96 -175 128 -63 32 -61 21 4 -24 68 -47 163 -150 210 -227 35 -57 88
-177 82 -184 -2 -2 -29 10 -60 25 -31 16 -80 32 -108 36 -34 5 -54 13 -61 26
-5 10 -14 19 -18 19 -5 0 -47 22 -93 49 -86 51 -218 108 -168 73 225 -158 309
-248 400 -430 62 -121 92 -237 97 -374 8 -186 -31 -342 -128 -510 -28 -49 -49
-91 -47 -93 6 -7 79 93 120 165 21 36 38 60 38 53 0 -23 -68 -200 -98 -254
-77 -140 -105 -306 -62 -376 23 -39 19 -40 -55 -12 -120 45 -202 143 -230 276
-26 123 -15 186 15 88 22 -70 79 -153 123 -176 10 -6 3 9 -18 37 -47 61 -64
102 -82 199 -19 107 -10 203 35 379 34 135 36 148 36 311 0 184 -12 240 -69
327 -32 48 -31 54 3 32 137 -89 235 -233 282 -417 13 -48 25 -85 28 -83 7 7
-19 145 -40 216 -57 188 -214 341 -420 410 -84 28 -103 22 -51 -16 60 -44 149
-149 177 -207 33 -72 46 -142 46 -252 0 -127 -15 -224 -55 -361 -88 -300 -92
-473 -13 -628 52 -101 196 -194 336 -216 46 -8 72 -16 70 -23 -2 -7 -35 -28
-73 -47 -62 -31 -78 -35 -145 -34 -56 1 -99 9 -170 33 -52 18 -105 39 -117 47
-32 20 -39 17 -17 -7 19 -21 130 -81 194 -105 l35 -13 -32 0 c-53 -1 -131 19
-209 55 -76 35 -209 119 -233 148 -7 9 -16 16 -20 16 -10 0 -31 -85 -31 -123
0 -34 31 -110 49 -121 36 -23 -16 -26 -378 -26 -541 0 -681 17 -809 101 -112
73 -179 171 -219 319 l-23 85 6 -60 c8 -87 23 -142 54 -207 16 -32 25 -58 21
-58 -20 0 -129 132 -155 188 -16 34 -34 62 -39 62 -5 0 -8 -54 -6 -127 4 -123
5 -130 37 -186 18 -31 28 -57 24 -57 -20 0 -90 72 -117 121 -29 53 -30 57 -30
194 0 129 2 146 28 217 16 43 41 95 56 115 44 61 49 71 26 53 -91 -71 -151
-202 -162 -350 -6 -77 -7 -82 -16 -50 -21 80 13 263 73 397 17 37 29 68 27 70
-4 3 -122 -35 -161 -52 -15 -7 -14 -1 9 36 38 62 76 100 183 186 167 133 259
238 328 371 19 37 60 94 90 127 l56 60 -6 -58 c-8 -78 -58 -226 -106 -316 -22
-41 -38 -76 -37 -78 6 -6 95 124 130 189 109 202 110 406 4 516 -39 41 -150
106 -282 167 -184 85 -261 125 -299 156 -42 35 -42 51 1 21 49 -34 134 -74
248 -114 262 -94 395 -205 450 -378 10 -30 21 -64 26 -75 14 -37 10 31 -7 106
-39 174 -189 301 -469 400 -183 64 -301 142 -370 246 -50 77 -44 204 20 354
78 186 79 375 1 524 -34 65 -135 173 -186 200 -29 15 -26 9 29 -57 62 -72 161
-251 148 -265 -4 -4 -22 7 -40 24 -36 35 -60 48 -120 68 l-42 14 30 -22 c45
-33 145 -135 145 -147 0 -6 -14 -2 -30 10 -17 12 -72 38 -124 59 -119 48 -170
78 -241 143 -111 101 -163 224 -184 433 -11 111 -48 207 -103 270 -22 25 -42
44 -44 42 -2 -2 7 -31 21 -65 36 -88 34 -97 -21 -111 -157 -40 -278 -168 -335
-356 -36 -117 -39 -66 -5 78 24 101 28 114 61 192 15 36 15 39 1 24 -39 -37
-115 -246 -131 -361 -11 -74 -25 -46 -26 50 -1 99 -13 88 -25 -23 -7 -58 -9
-65 -15 -40 -12 55 -9 242 5 318 24 124 70 221 137 288 49 49 53 56 29 47 -16
-5 -49 -28 -75 -50 -25 -22 -45 -34 -45 -28 0 27 66 126 122 183 32 33 57 61
55 63 -1 2 -23 -10 -47 -26 -24 -16 -46 -28 -48 -26 -13 13 125 216 147 216 4
0 11 -29 14 -63 3 -35 12 -77 19 -93 16 -38 60 -105 65 -101 2 2 -3 30 -12 63
-21 83 -20 114 5 114 35 0 94 -30 132 -67 29 -29 36 -32 31 -15 -3 11 -21 39
-40 61 -38 45 -30 50 32 22 60 -27 111 -90 130 -158 8 -32 24 -92 35 -133 30
-108 74 -192 137 -260 30 -33 59 -60 63 -60 5 0 -11 29 -34 63 -54 81 -103
198 -128 307 -36 161 -68 223 -131 256 -16 9 -26 18 -23 22 13 12 76 -31 109
-74 24 -31 48 -86 81 -188 29 -91 60 -164 83 -200 39 -58 64 -77 39 -28 -23
45 -54 142 -75 239 -42 192 -127 289 -274 312 -28 5 -74 6 -100 1 -62 -9 -58
3 21 57 71 48 187 88 312 107 69 11 80 15 57 21 -29 8 -133 0 -207 -16 -24 -6
-83 -28 -130 -49 l-85 -40 50 45 c94 83 261 156 450 196 87 19 388 17 495 -4
144 -27 159 -28 95 -7 -110 36 -242 53 -410 54 -88 0 -178 -2 -200 -6 -34 -7
-36 -6 -15 3 94 42 407 47 590 10z m-915 -1078 c13 -141 33 -222 74 -299 l39
-76 -36 6 c-73 12 -231 18 -276 12 -68 -11 -111 -52 -127 -123 -24 -106 31
-328 113 -456 41 -64 154 -166 219 -199 81 -41 173 -61 243 -54 97 10 160 46
263 148 51 51 94 90 97 87 2 -2 -5 -31 -16 -64 -46 -130 -31 -339 30 -436 16
-24 31 -50 36 -56 14 -25 -31 -13 -69 17 -42 33 -103 41 -125 15 -18 -21 -2
-38 31 -31 23 4 36 -1 66 -27 31 -28 44 -32 94 -33 50 -1 63 -6 94 -33 43 -38
79 -57 269 -143 82 -37 173 -82 203 -100 54 -32 123 -99 123 -118 0 -30 -310
-351 -390 -403 -97 -64 -158 -81 -300 -81 -113 -1 -132 2 -200 27 -100 37
-159 83 -323 257 -238 249 -267 299 -367 635 -108 360 -127 457 -146 740 -9
132 -13 274 -10 316 8 101 37 211 80 304 58 126 182 232 273 234 l31 1 7 -67z
m83 -572 c14 -8 13 -10 -11 -16 -15 -4 -35 -4 -44 -1 -11 5 -23 0 -33 -15 -15
-19 -18 -20 -33 -5 -23 23 -37 20 -37 -9 0 -25 -1 -25 -25 -9 -34 22 -31 42 8
60 35 16 143 13 175 -5z m-600 -64 c23 -18 12 -27 -35 -27 -61 0 -93 -28 -93
-81 0 -37 21 -66 40 -54 5 3 10 22 10 40 0 43 25 59 61 42 33 -17 37 -69 10
-117 -45 -80 -32 -190 29 -259 16 -18 30 -43 30 -55 0 -11 9 -54 19 -93 12
-45 15 -73 9 -73 -21 0 -82 76 -110 136 -16 34 -38 101 -49 150 -12 49 -34
135 -50 191 -33 118 -35 133 -14 173 22 43 103 58 143 27z m1135 -87 c15 -17
27 -35 27 -40 0 -24 -112 38 -180 99 l-45 41 85 -35 c51 -21 96 -47 113 -65z
m-589 -15 c-4 -25 -1 -43 11 -61 9 -14 15 -27 13 -29 -6 -7 -102 41 -116 57
-10 12 -10 18 1 27 11 8 73 35 95 40 2 1 0 -15 -4 -34z m277 14 c54 -24 62
-43 24 -61 -31 -14 -33 -32 -2 -25 50 12 97 34 90 43 -5 5 7 -4 25 -21 71 -63
78 -110 26 -175 -100 -126 -253 -161 -400 -90 -75 37 -183 153 -170 185 8 22
23 18 29 -7 5 -18 8 -19 22 -8 14 11 18 10 32 -10 l16 -23 18 24 c14 19 30 24
89 30 59 5 76 11 99 33 32 31 43 69 30 103 -11 30 6 30 72 2z m-804 -221 c-3
-7 -5 -2 -5 12 0 14 2 19 5 13 2 -7 2 -19 0 -25z m3751 -924 c-4 -3 -12 5 -18
18 -12 22 -12 22 6 6 10 -10 15 -20 12 -24z m100 -215 c-3 -8 -7 -3 -11 10 -4
17 -3 21 5 13 5 -5 8 -16 6 -23z m69 -61 c-3 -8 -6 -5 -6 6 -1 11 2 17 5 13 3
-3 4 -12 1 -19z m0 -295 c-3 -10 -5 -4 -5 12 0 17 2 24 5 18 2 -7 2 -21 0 -30z
m-2694 -573 c-3 -11 -9 -17 -15 -14 -5 3 -4 12 3 20 16 19 18 18 12 -6z m365
-571 c9 -17 4 -14 -18 11 -16 19 -30 39 -30 44 0 13 31 -23 48 -55z m1452 10
c0 -6 -4 -7 -10 -4 -5 3 -10 11 -10 16 0 6 5 7 10 4 6 -3 10 -11 10 -16z"/>
<path d="M2784 4478 c136 -191 214 -437 246 -778 7 -78 8 -60 5 100 -4 201
-15 276 -54 381 -11 29 -19 54 -17 56 8 8 80 -102 108 -165 25 -56 29 -61 24
-30 -6 47 -45 144 -87 215 -35 59 -209 243 -230 243 -7 0 -6 -8 5 -22z"/>
<path d="M3217 3169 c-15 -41 -40 -74 -117 -153 -110 -114 -132 -150 -132
-216 0 -89 47 -149 179 -226 130 -76 201 -161 204 -244 l1 -35 13 30 c17 37
19 99 4 128 -23 44 -77 90 -186 158 -62 39 -121 81 -132 96 -26 33 -42 89 -32
115 6 17 9 15 19 -19 11 -38 76 -112 88 -101 3 4 -4 20 -17 37 -16 21 -24 49
-27 89 -5 69 6 95 77 183 49 60 86 148 79 189 -2 16 -8 7 -21 -31z"/>
<path d="M3590 2656 c0 -3 22 -17 49 -30 74 -38 151 -129 151 -178 0 -10 5
-18 11 -18 13 0 5 78 -13 123 -6 15 -9 30 -6 33 6 5 209 -33 245 -47 14 -5 28
-7 31 -5 12 13 -206 90 -297 105 -87 15 -171 23 -171 17z"/>
<path d="M2663 1188 c-25 -48 -28 -63 -28 -158 0 -118 12 -154 84 -259 62 -91
74 -121 74 -181 0 -63 -18 -104 -69 -155 -19 -19 -31 -35 -26 -35 20 0 98 61
115 89 27 45 40 29 34 -41 -5 -60 -33 -126 -70 -166 -28 -30 -12 -28 30 4 45
34 75 96 81 169 8 103 -28 196 -135 353 -48 71 -59 110 -20 75 12 -12 42 -31
67 -44 70 -35 151 -93 191 -136 42 -44 59 -88 59 -151 0 -63 19 -42 27 29 11
106 -49 183 -224 285 -50 30 -103 67 -116 84 -34 40 -50 116 -45 211 3 43 3
79 2 79 -2 0 -16 -24 -31 -52z"/>
<path d="M1800 2119 c-19 -11 -60 -45 -90 -74 -30 -29 -64 -55 -75 -57 -28 -5
-27 -42 2 -46 31 -5 102 -120 96 -155 -4 -22 2 -30 42 -56 89 -56 199 -64 300
-21 38 16 46 24 43 43 -1 14 8 34 25 52 15 17 42 54 58 83 18 31 37 52 48 52
23 0 41 19 34 36 -3 8 -15 14 -27 14 -13 0 -40 19 -66 46 -55 57 -126 104
-157 104 -12 0 -37 -9 -55 -20 -32 -19 -32 -19 -66 0 -42 25 -68 25 -112 -1z
m330 -261 c0 -43 -109 -91 -123 -54 -6 15 11 36 28 36 7 0 20 9 30 20 26 28
65 27 65 -2z"/>
</g>
</svg>
